<?xml version="1.0" standalone="no"?>
<!DOCTYPE svg PUBLIC "-//W3C//DTD SVG 20010904//EN"
 "http://www.w3.org/TR/2001/REC-SVG-20010904/DTD/svg10.dtd">
<svg version="1.0" xmlns="http://www.w3.org/2000/svg"
 width="3500.000000pt" height="1440.000000pt" viewBox="0 0 3500.000000 1440.000000"
 preserveAspectRatio="xMidYMid meet">

<g transform="translate(0.000000,1440.000000) scale(0.100000,-0.100000)"
fill="#000000" stroke="none">
<path d="M13180 11012 l0 -787 -2923 -2923 -2922 -2922 -788 0 -787 0 0 -890
0 -890 890 0 890 0 0 793 0 792 1438 1437 1437 1437 1383 -1379 1382 -1379 0
-845 0 -846 885 0 885 0 0 885 0 885 -728 0 -727 0 -1440 1440 -1440 1440
1380 1380 1380 1380 787 0 788 0 0 883 0 884 -497 6 c-273 4 -671 7 -885 7
l-388 0 0 -788z m1490 -107 l0 -605 -605 0 -605 0 0 605 0 605 605 0 605 0 0
-605z m-7417 -7247 c4 -244 7 -516 7 -605 l0 -163 -605 0 -605 0 0 605 0 605
598 0 599 0 6 -442z m7417 -168 l0 -610 -602 2 -603 3 -3 608 -2 607 605 0
605 0 0 -610z"/>
<path d="M24126 8447 c-15 -11 -16 -90 -14 -852 l3 -840 28 -3 27 -3 0 363 c0
467 10 515 121 633 222 235 603 150 712 -160 7 -18 13 -184 17 -430 l5 -400
25 0 25 0 0 410 c0 407 0 410 -23 468 -33 82 -108 174 -180 224 -208 142 -494
98 -652 -99 l-45 -57 -3 374 c-2 393 -4 403 -46 372z"/>
<path d="M16485 8438 c-3 -7 -4 -389 -3 -848 l3 -835 25 0 25 0 5 782 5 781
565 -784 c455 -632 569 -784 585 -782 20 3 20 11 20 843 l0 840 -25 0 -25 0
-5 -776 -5 -777 -564 784 c-553 769 -590 815 -606 772z"/>
<path d="M19926 8434 c-3 -9 -6 -123 -6 -254 l0 -239 -112 -3 c-101 -3 -113
-5 -116 -22 -6 -29 16 -36 126 -36 l102 0 0 -476 c0 -327 4 -489 12 -521 16
-64 71 -118 134 -131 40 -9 52 -8 64 4 22 22 1 48 -46 55 -25 4 -47 17 -66 38
l-28 31 0 500 0 500 98 0 c104 0 126 7 120 36 -3 17 -15 19 -111 22 l-107 3 0
235 c0 143 -4 243 -10 255 -13 23 -46 25 -54 3z"/>
<path d="M23194 7956 c-120 -28 -215 -98 -254 -188 -43 -99 -10 -229 73 -292
56 -43 142 -75 324 -121 203 -52 282 -89 322 -149 22 -34 26 -50 26 -117 0
-70 -3 -81 -30 -120 -66 -94 -183 -149 -330 -157 -138 -7 -278 37 -396 124
-53 39 -82 41 -87 7 -6 -41 179 -147 311 -178 81 -19 217 -19 292 0 133 34
244 117 287 212 33 73 30 173 -7 241 -51 95 -129 136 -373 197 -255 64 -336
110 -362 203 -14 52 -12 81 9 127 24 52 74 98 136 127 43 20 66 23 170 23 115
0 123 -1 190 -33 39 -18 84 -47 101 -64 34 -32 67 -34 72 -5 5 24 -21 52 -84
93 -107 69 -267 98 -390 70z"/>
<path d="M18701 7924 c-148 -40 -290 -160 -359 -304 -22 -47 -45 -109 -51
-138 -15 -75 -13 -227 4 -292 69 -259 290 -439 541 -440 150 0 267 47 379 152
125 117 189 266 189 443 0 275 -177 514 -431 580 -71 19 -201 18 -272 -1z
m249 -55 c171 -39 322 -189 376 -374 23 -79 23 -220 0 -300 -35 -119 -106
-223 -201 -290 -84 -60 -154 -86 -250 -92 -155 -10 -259 31 -375 147 -121 121
-166 239 -158 415 6 111 28 185 83 270 66 103 180 189 294 221 57 15 171 17
231 3z"/>
<path d="M21035 7922 c-96 -28 -164 -71 -248 -153 -120 -119 -177 -257 -177
-427 0 -162 61 -306 179 -422 248 -245 616 -226 839 43 48 60 56 97 18 97 -17
0 -31 -11 -46 -34 -29 -48 -116 -125 -176 -158 -142 -77 -320 -77 -473 -1 -72
36 -177 141 -218 219 -38 70 -63 160 -63 221 l0 43 536 2 c496 3 538 4 548 20
15 25 -16 167 -54 245 -65 131 -180 237 -316 289 -92 36 -258 43 -349 16z
m268 -57 c199 -52 355 -218 391 -417 l7 -38 -517 0 -516 0 7 37 c11 60 43 137
84 200 115 178 344 270 544 218z"/>
<path d="M26006 7925 c-130 -36 -245 -120 -324 -238 -73 -110 -97 -195 -97
-342 0 -147 24 -232 97 -342 112 -166 271 -253 463 -253 144 0 256 45 362 144
37 33 82 86 102 116 l36 55 3 -157 3 -158 23 0 c13 0 27 7 30 16 9 25 7 1147
-3 1162 -5 8 -17 12 -27 10 -17 -3 -19 -17 -24 -163 l-5 -160 -24 45 c-13 25
-56 77 -95 116 -113 113 -237 165 -391 163 -44 0 -102 -7 -129 -14z m236 -56
c77 -16 181 -74 243 -135 105 -104 159 -239 157 -399 -1 -185 -86 -346 -233
-444 -199 -133 -454 -101 -621 78 -202 216 -197 552 11 760 127 127 277 175
443 140z"/>
<path d="M27226 7925 c-9 -25 -7 -1148 3 -1163 5 -8 17 -12 27 -10 18 3 19 20
24 308 l5 305 32 72 c121 275 276 419 478 441 56 7 60 9 60 32 0 24 -2 25 -70
24 -157 -4 -310 -108 -434 -299 -28 -42 -54 -86 -58 -98 -5 -13 -10 65 -13
188 -5 205 -6 210 -26 213 -13 2 -24 -4 -28 -13z"/>
<path d="M28515 7921 c-202 -59 -355 -219 -409 -428 -20 -78 -20 -218 0 -297
94 -363 496 -552 818 -384 81 43 229 187 224 220 -6 41 -44 29 -86 -27 -49
-64 -145 -137 -219 -165 -73 -28 -209 -38 -284 -20 -222 51 -409 274 -409 487
l0 43 534 0 c474 0 535 2 547 16 10 13 11 29 1 86 -39 227 -210 416 -428 473
-77 20 -213 18 -289 -4z m268 -56 c186 -48 333 -196 381 -381 9 -34 16 -65 16
-68 0 -3 -232 -6 -515 -6 l-515 0 0 23 c0 12 11 52 24 90 91 256 359 407 609
342z"/>
<path d="M16575 6326 c-102 -45 -111 -167 -16 -215 21 -11 75 -29 121 -41 106
-27 138 -44 146 -76 15 -59 -41 -104 -128 -104 -84 0 -158 39 -158 82 0 14 -8
18 -31 18 -30 0 -31 -1 -25 -32 14 -70 92 -117 196 -118 85 0 133 14 168 50
59 59 47 147 -26 188 -21 11 -76 30 -124 42 -106 27 -148 51 -148 84 0 60 38
86 127 86 67 0 118 -25 133 -65 12 -30 60 -36 60 -7 0 31 -39 81 -79 102 -48
24 -168 27 -216 6z"/>
<path d="M17350 6090 l0 -250 25 0 25 0 0 110 0 110 145 0 145 0 0 -111 0
-110 28 3 27 3 3 248 2 247 -30 0 -30 0 0 -110 0 -110 -145 0 -145 0 0 110 0
110 -25 0 -25 0 0 -250z"/>
<path d="M18292 6098 c-56 -134 -102 -247 -102 -251 0 -14 52 -3 61 13 5 8 20
41 33 73 l25 58 122 -3 123 -3 29 -72 c27 -68 32 -73 59 -73 19 0 28 5 26 13
-2 7 -48 120 -103 250 l-100 237 -35 0 -36 0 -102 -242z m190 57 l47 -115
-100 0 -99 0 13 33 c8 17 29 69 47 115 19 45 36 82 39 82 4 0 27 -52 53 -115z"/>
<path d="M19110 6089 l0 -250 28 3 27 3 3 93 3 92 85 0 85 0 61 -95 c53 -84
64 -95 89 -95 16 0 29 3 29 7 0 4 -28 49 -61 100 -34 51 -60 95 -58 96 2 1 21
10 41 19 45 21 70 65 70 124 0 60 -28 104 -82 132 -40 20 -59 22 -182 22
l-138 0 0 -251z m315 168 c39 -33 45 -94 12 -133 -25 -29 -27 -29 -146 -32
l-121 -4 0 96 0 96 114 0 c105 0 117 -2 141 -23z"/>
<path d="M19990 6090 l0 -250 180 0 180 0 0 30 0 30 -155 0 -155 0 0 80 0 79
138 3 137 3 3 28 3 27 -140 0 -141 0 0 80 0 80 155 0 155 0 0 30 0 30 -180 0
-180 0 0 -250z"/>
<path d="M21305 6313 c10 -16 54 -80 99 -143 l81 -115 5 -105 5 -105 28 -3 27
-3 0 100 0 101 100 144 c55 79 100 147 100 150 0 3 -13 6 -29 6 -27 0 -39 -13
-115 -121 l-84 -121 -49 69 c-26 38 -64 92 -83 121 -30 45 -39 52 -69 52 l-33
0 17 -27z"/>
<path d="M22280 6324 c-106 -46 -165 -168 -140 -289 49 -235 384 -266 478 -45
19 45 19 155 0 201 -22 51 -72 104 -122 128 -52 26 -163 28 -216 5z m171 -45
c137 -46 173 -247 60 -342 -31 -26 -87 -47 -126 -47 -173 0 -259 219 -136 346
50 50 129 67 202 43z"/>
<path d="M23090 6195 c0 -182 11 -235 59 -288 44 -49 85 -67 151 -67 87 0 153
39 191 112 17 32 19 60 19 213 l0 175 -25 0 -25 0 0 -162 c0 -194 -12 -233
-84 -267 -53 -26 -89 -26 -144 -1 -70 32 -82 70 -82 268 l0 162 -30 0 -30 0 0
-145z"/>
<path d="M24005 6328 c-3 -7 -4 -119 -3 -248 l3 -235 28 -3 27 -3 0 95 0 96
88 0 87 0 59 -95 c52 -84 62 -95 87 -95 16 0 29 4 29 8 0 4 -27 49 -59 99
l-60 92 37 18 c54 27 77 65 77 128 0 58 -18 91 -69 129 -24 19 -45 21 -177 24
-119 3 -150 1 -154 -10z m316 -77 c21 -22 29 -39 29 -66 0 -27 -8 -44 -29 -66
-29 -29 -31 -29 -145 -29 l-116 0 0 95 0 95 116 0 c114 0 116 0 145 -29z"/>
<path d="M25410 6090 l0 -250 30 0 30 0 2 206 3 206 150 -206 c142 -195 152
-206 183 -206 l32 0 0 250 0 250 -30 0 -30 0 -2 -204 -3 -204 -150 204 c-142
194 -151 204 -182 204 l-33 0 0 -250z"/>
<path d="M26445 6321 c-78 -35 -145 -142 -145 -231 0 -62 31 -134 79 -180 75
-74 189 -92 286 -46 88 41 134 117 135 220 0 159 -93 256 -246 256 -45 0 -83
-7 -109 -19z m190 -50 c124 -56 153 -225 56 -322 -75 -75 -189 -77 -270 -4
-107 97 -67 295 67 335 46 14 105 10 147 -9z"/>
<path d="M27200 6310 l0 -30 85 0 85 0 0 -221 0 -220 28 3 27 3 3 218 2 217
85 0 85 0 0 30 0 30 -200 0 -200 0 0 -30z"/>
<path d="M28044 6327 c-2 -7 -3 -118 -2 -247 l3 -235 183 -3 182 -2 0 30 0 30
-155 0 -155 0 0 80 0 79 138 3 137 3 0 25 0 25 -137 3 -138 3 0 79 0 79 153 3
152 3 3 28 3 27 -181 0 c-137 0 -182 -3 -186 -13z"/>
<path d="M28924 6326 c-49 -22 -74 -61 -74 -116 0 -42 4 -52 34 -78 19 -17 59
-37 88 -45 29 -8 78 -22 108 -31 81 -23 102 -40 98 -83 -4 -50 -41 -76 -116
-81 -78 -6 -148 23 -165 68 -9 24 -17 30 -40 30 -27 0 -29 -2 -23 -27 19 -77
78 -115 191 -121 67 -4 90 -1 128 16 106 47 116 171 18 221 -21 11 -75 29
-121 41 -46 12 -96 28 -111 35 -46 24 -52 69 -14 105 20 19 40 25 89 28 78 5
128 -15 147 -59 9 -24 17 -29 38 -27 30 3 31 28 2 67 -38 53 -67 66 -159 69
-58 1 -97 -2 -118 -12z"/>
</g>
</svg>
